<?xml version="1.0" encoding="UTF-8" standalone="no"?>
<!DOCTYPE svg PUBLIC "-//W3C//DTD SVG 1.1//EN" "http://www.w3.org/Graphics/SVG/1.1/DTD/svg11.dtd">
<svg width="100%" height="100%" viewBox="0 0 1547 1009" version="1.1" xmlns="http://www.w3.org/2000/svg" xmlns:xlink="http://www.w3.org/1999/xlink" xml:space="preserve" xmlns:serif="http://www.serif.com/" style="fill-rule:evenodd;clip-rule:evenodd;stroke-linejoin:round;stroke-miterlimit:2;">
    <g transform="matrix(1,0,0,1,-2139.394158,-8389.498754)">
        <g transform="matrix(10.214033,1.232685,-1.232685,10.214033,-4855.568159,-5431.532524)">
            <g transform="matrix(0.060962,-0.007357,0.007357,0.060962,728.950384,1119.475262)">
                <ellipse cx="3340.831" cy="3750.524" rx="549.56" ry="200.72" style="fill-opacity:0.22;"/>
            </g>
            <g transform="matrix(0.750189,0,0,0.750189,218.472473,334.833)">
                <path d="M1010.957,1280.711C1017.401,1275.28 1015.508,1263.717 1020.407,1262.322C1025.656,1260.826 1036.711,1285.937 1016.553,1292.197" style="fill:rgb(223,222,202);"/>
                <path d="M1020.881,1265.636C1020.777,1265.822 1020.706,1266.059 1020.602,1266.29C1020.054,1267.514 1019.695,1269.085 1019.272,1270.762C1018.177,1275.1 1016.691,1279.938 1012.958,1283.085C1011.648,1284.189 1009.688,1284.022 1008.584,1282.711C1007.479,1281.401 1007.647,1279.441 1008.957,1278.337C1010.467,1277.065 1011.343,1275.33 1012,1273.539C1012.809,1271.332 1013.281,1269.016 1013.825,1267.017C1014.925,1262.983 1016.701,1260.15 1019.556,1259.336C1020.707,1259.009 1021.985,1259.1 1023.3,1259.742C1024.98,1260.562 1026.939,1262.591 1028.453,1265.499C1031.544,1271.439 1032.963,1281.014 1027.993,1287.983C1025.834,1291.01 1022.487,1293.605 1017.474,1295.161C1015.838,1295.67 1014.097,1294.754 1013.589,1293.118C1013.081,1291.481 1013.997,1289.74 1015.633,1289.232C1019.086,1288.16 1021.452,1286.463 1022.939,1284.378C1026.477,1279.416 1025.147,1272.595 1022.945,1268.365C1022.394,1267.306 1021.386,1266.172 1020.881,1265.636Z" style="fill:rgb(55,49,78);"/>
            </g>
            <g transform="matrix(0.750189,0,0,0.750189,218.472473,334.833)">
                <path d="M981.71,1273.905C983.601,1273.926 997.802,1274.083 1005.065,1277.53C1018.718,1284.009 1021.909,1306.498 1006.049,1311.444C995.461,1314.746 964.545,1312.826 964.054,1292.797" style="fill:rgb(223,222,202);"/>
                <path d="M981.676,1277.009C979.963,1276.99 978.587,1275.583 978.606,1273.87C978.625,1272.157 980.031,1270.782 981.744,1270.801C983.741,1270.823 998.725,1271.085 1006.396,1274.725C1014.237,1278.446 1019.121,1286.734 1019.72,1294.832C1020.345,1303.278 1016.473,1311.444 1006.973,1314.407C1000.154,1316.534 985.476,1316.686 974.714,1311.789C966.935,1308.25 961.18,1302.197 960.951,1292.873C960.909,1291.161 962.266,1289.736 963.978,1289.694C965.691,1289.652 967.116,1291.008 967.158,1292.721C967.322,1299.421 971.695,1303.595 977.285,1306.138C986.575,1310.366 999.239,1310.316 1005.125,1308.48C1011.485,1306.497 1013.947,1300.945 1013.529,1295.291C1013.084,1289.288 1009.546,1283.092 1003.734,1280.334C996.879,1277.081 983.46,1277.028 981.676,1277.009Z" style="fill:rgb(55,49,78);"/>
            </g>
            <g transform="matrix(0.750189,0,0,0.750189,218.472473,334.833)">
                <path d="M948.274,1248.54C959.86,1248.435 962.702,1257.657 962.702,1257.657C962.702,1257.657 966.015,1252.165 966.837,1249.106C981.633,1252.103 983.246,1275.336 978.287,1283.308C971.113,1294.839 933.984,1296.622 932.736,1275.556C932.225,1266.925 936.608,1261.236 945.886,1263.552C948.958,1258.578 948.425,1250.724 948.274,1248.54Z" style="fill:rgb(223,222,202);"/>
                <path d="M948.246,1245.436C955.612,1245.369 960.037,1248.458 962.583,1251.424C963.121,1250.315 963.599,1249.195 963.839,1248.301C964.264,1246.718 965.847,1245.739 967.453,1246.064C976.086,1247.812 981.091,1255.275 982.997,1263.653C984.832,1271.72 983.709,1280.469 980.923,1284.948C979.201,1287.715 976.107,1290.098 972.141,1291.804C966.776,1294.112 959.778,1295.237 953.066,1294.752C941.122,1293.89 930.358,1287.912 929.637,1275.739C929.32,1270.388 930.717,1266.006 933.435,1263.264C935.863,1260.814 939.413,1259.465 944.15,1260.068C945.777,1255.82 945.292,1250.413 945.177,1248.755C945.118,1247.901 945.413,1247.061 945.994,1246.433C946.575,1245.804 947.39,1245.444 948.246,1245.436ZM951.485,1251.935C951.46,1255.721 950.958,1261.247 948.527,1265.183C947.817,1266.333 946.445,1266.891 945.134,1266.564C941.854,1265.745 939.395,1266.07 937.845,1267.634C936.179,1269.315 935.64,1272.091 935.835,1275.372C936.362,1284.27 944.782,1287.93 953.513,1288.56C959.202,1288.971 965.14,1288.057 969.688,1286.101C972.332,1284.963 974.503,1283.514 975.651,1281.668C977.824,1278.175 978.374,1271.322 976.943,1265.03C975.777,1259.903 973.261,1255.019 968.685,1252.942C967.303,1255.995 965.36,1259.26 965.36,1259.26C964.728,1260.308 963.539,1260.887 962.324,1260.738C961.11,1260.589 960.096,1259.74 959.735,1258.571C959.735,1258.571 957.946,1253.252 951.485,1251.935Z" style="fill:rgb(55,49,78);"/>
            </g>
            <g transform="matrix(0.750189,0,0,0.750189,218.437968,336.462851)">
                <path d="M941.32,1272.675C940.358,1273.16 939.169,1273.129 938.207,1272.492C936.779,1271.546 936.387,1269.618 937.334,1268.19C938.984,1265.699 940.95,1264.997 942.262,1265.109C943.68,1265.231 945.651,1266.266 946.481,1269.701C946.883,1271.366 945.857,1273.045 944.192,1273.447C943.128,1273.704 942.059,1273.378 941.32,1272.675Z" style="fill:rgb(55,49,78);"/>
            </g>
            <g transform="matrix(0.750189,0,0,0.750189,218.472473,334.833)">
                <path d="M962.992,1317.765C962.242,1319.306 960.382,1319.947 958.842,1319.197C957.302,1318.446 956.66,1316.587 957.411,1315.047C960.143,1309.438 960.174,1309.542 963.712,1304.366C964.679,1302.952 966.612,1302.589 968.027,1303.556C969.441,1304.523 969.804,1306.456 968.837,1307.87C965.558,1312.667 965.524,1312.567 962.992,1317.765Z" style="fill:rgb(55,49,78);"/>
            </g>
            <g transform="matrix(0.750189,0,0,0.750189,218.472473,334.833)">
                <path d="M971.743,1308.846C971.547,1307.144 972.77,1305.603 974.471,1305.407C976.173,1305.211 977.715,1306.433 977.911,1308.135C978.574,1313.883 978.565,1313.842 978.714,1319.596C978.759,1321.308 977.404,1322.735 975.692,1322.779C973.979,1322.824 972.552,1321.469 972.508,1319.757C972.366,1314.28 972.375,1314.318 971.743,1308.846Z" style="fill:rgb(55,49,78);"/>
            </g>
            <g transform="matrix(0.750189,0,0,0.750189,218.472473,334.833)">
                <path d="M1006.056,1322.675C1005.635,1324.335 1003.945,1325.342 1002.284,1324.921C1000.623,1324.5 999.617,1322.81 1000.038,1321.15C1000.159,1320.669 1000.067,1320.658 1002.042,1313.223C1002.482,1311.567 1004.183,1310.58 1005.839,1311.019C1007.495,1311.459 1008.482,1313.161 1008.042,1314.817C1006.084,1322.187 1006.177,1322.198 1006.056,1322.675Z" style="fill:rgb(55,49,78);"/>
            </g>
            <g transform="matrix(0.750189,0,0,0.750189,218.472473,334.833)">
                <path d="M1009.205,1310.541C1008.453,1309.002 1009.093,1307.141 1010.632,1306.39C1012.172,1305.638 1014.032,1306.277 1014.784,1307.817C1017.511,1313.4 1017.445,1313.348 1019.449,1319.228C1020.002,1320.85 1019.134,1322.615 1017.512,1323.168C1015.89,1323.72 1014.125,1322.852 1013.572,1321.231C1011.696,1315.723 1011.759,1315.771 1009.205,1310.541Z" style="fill:rgb(55,49,78);"/>
            </g>
            <g transform="matrix(0.750189,0,0,0.750189,218.472473,334.833)">
                <path d="M969.065,1268.652C968.731,1270.332 967.096,1271.425 965.415,1271.091C963.735,1270.757 962.642,1269.122 962.976,1267.441L962.994,1267.349C963.328,1265.669 964.964,1264.576 966.644,1264.91C968.325,1265.244 969.418,1266.879 969.084,1268.56L969.065,1268.652Z" style="fill:rgb(55,49,78);"/>
            </g>
            <g transform="matrix(0.750189,0,0,0.750189,218.472473,334.833)">
                <path d="M956.925,1264.26C958.325,1265.248 958.659,1267.186 957.671,1268.586C956.682,1269.985 954.744,1270.319 953.344,1269.331L953.29,1269.293C951.89,1268.304 951.556,1266.366 952.544,1264.966C953.533,1263.567 955.471,1263.233 956.871,1264.221L956.925,1264.26Z" style="fill:rgb(55,49,78);"/>
            </g>
        </g>
        <g id="Francisco" transform="matrix(6.720431,0,0,6.720431,-10113.866831,-674.655101)">
            <g transform="matrix(0.094002,0,0,0.094002,1577.832292,1115.714363)">
                <ellipse cx="3340.831" cy="3750.524" rx="549.56" ry="200.72" style="fill-opacity:0.22;"/>
            </g>
            <path d="M1925.738,1468.092C1925.738,1447.369 1910.614,1403.494 1888.928,1404.505C1869.583,1405.406 1857.014,1447.836 1856.263,1467.751C1865.282,1476.579 1915.282,1477.184 1925.738,1468.092Z" style="fill:rgb(232,83,83);"/>
            <path d="M1929.3,1467.965C1929.371,1469.931 1927.832,1471.585 1925.865,1471.655C1923.899,1471.726 1922.245,1470.187 1922.175,1468.22C1921.766,1456.831 1915.958,1437.08 1907.262,1423.092C1904.475,1418.607 1901.397,1414.721 1898.071,1411.974C1895.18,1409.587 1892.136,1408.07 1888.928,1408.07C1885.784,1408.07 1882.931,1409.53 1880.309,1411.844C1877.263,1414.531 1874.56,1418.339 1872.169,1422.735C1864.604,1436.643 1860.261,1456.338 1859.825,1467.885C1859.751,1469.851 1858.095,1471.387 1856.128,1471.313C1854.162,1471.239 1852.626,1469.582 1852.7,1467.616C1853.166,1455.266 1857.814,1434.203 1865.906,1419.328C1871.852,1408.397 1879.846,1400.94 1888.928,1400.94C1897.907,1400.94 1906.537,1408.418 1913.318,1419.328C1922.684,1434.395 1928.86,1455.696 1929.3,1467.965Z" style="fill:rgb(55,49,78);"/>
            <g transform="matrix(1,0,0,1,0,23.764576)">
                <path d="M1930.564,1362.662C1936.859,1380.799 1932.434,1398.412 1908.091,1410.384C1895.579,1416.537 1865.131,1417.16 1852.733,1400.04C1840.53,1383.191 1840.67,1357.712 1860.527,1344.592C1895.101,1321.75 1924.269,1344.525 1930.564,1362.662Z" style="fill:rgb(222,194,169);"/>
                <path d="M1933.932,1361.493C1937.383,1371.436 1937.8,1381.237 1934.113,1390.192C1930.481,1399.016 1922.814,1407.116 1909.664,1413.583C1902.96,1416.88 1891.462,1418.784 1879.968,1417.482C1868.246,1416.154 1856.62,1411.486 1849.845,1402.131C1836.522,1383.734 1836.88,1355.943 1858.562,1341.618C1895.82,1317.002 1927.149,1341.948 1933.932,1361.493ZM1927.196,1363.831C1921.39,1347.102 1894.383,1326.498 1862.492,1347.567C1844.459,1359.481 1844.538,1382.648 1855.62,1397.949C1861.244,1405.714 1871.041,1409.295 1880.771,1410.397C1890.728,1411.525 1900.71,1410.041 1906.517,1407.185C1917.711,1401.68 1924.428,1394.988 1927.52,1387.478C1930.558,1380.099 1930.04,1372.024 1927.196,1363.831Z" style="fill:rgb(55,49,78);"/>
            </g>
            <g transform="matrix(1,0,0,1,0,23.764576)">
                <path d="M1881.64,1390.167C1881.554,1390.578 1881.551,1390.954 1881.609,1391.297C1881.59,1391.148 1881.581,1390.996 1881.581,1390.842C1881.581,1390.494 1881.63,1390.158 1881.723,1389.88C1881.765,1389.765 1881.815,1389.661 1881.872,1389.571C1881.866,1389.572 1881.861,1389.574 1881.855,1389.576C1882.394,1388.618 1883.665,1389.042 1885.146,1394.407C1885.146,1394.407 1885.165,1394.408 1885.201,1394.408L1885.127,1394.461C1883.159,1394.461 1881.562,1392.864 1881.562,1390.896C1881.562,1390.641 1881.588,1390.392 1881.64,1390.167ZM1881.64,1390.167C1881.673,1390.007 1881.719,1389.841 1881.779,1389.669C1881.797,1389.619 1881.822,1389.588 1881.855,1389.576C1881.805,1389.666 1881.761,1389.768 1881.723,1389.88C1881.691,1389.97 1881.663,1390.066 1881.64,1390.167ZM1885.201,1394.408L1888.511,1392.018C1887.714,1394.303 1885.571,1394.407 1885.201,1394.408Z" style="fill:rgb(55,49,78);"/>
            </g>
            <g transform="matrix(1,0,0,1,0,23.764576)">
                <path d="M1904.667,1390.517C1904.581,1390.928 1904.578,1391.304 1904.637,1391.647C1904.618,1391.498 1904.608,1391.346 1904.608,1391.192C1904.608,1390.844 1904.658,1390.508 1904.751,1390.23C1904.793,1390.115 1904.842,1390.011 1904.899,1389.921C1904.893,1389.922 1904.888,1389.924 1904.883,1389.926C1905.421,1388.968 1906.692,1389.392 1908.173,1394.757C1908.173,1394.757 1908.192,1394.758 1908.228,1394.758L1908.154,1394.811C1906.186,1394.811 1904.589,1393.214 1904.589,1391.246C1904.589,1390.991 1904.616,1390.742 1904.667,1390.517ZM1904.667,1390.517C1904.7,1390.357 1904.746,1390.191 1904.806,1390.019C1904.824,1389.969 1904.85,1389.938 1904.883,1389.926C1904.832,1390.016 1904.788,1390.118 1904.751,1390.23C1904.718,1390.32 1904.69,1390.416 1904.667,1390.517ZM1908.228,1394.758L1911.538,1392.368C1910.741,1394.653 1908.599,1394.757 1908.228,1394.758Z" style="fill:rgb(55,49,78);"/>
            </g>
            <g transform="matrix(0.594114,0,0,0.594114,4643.159533,-5806.152274)">
                <path d="M-4626.052,12099.311C-4629.662,12107.645 -4642.136,12158.71 -4740.349,12136.598C-4711.263,12124.57 -4717.971,12090.062 -4705.225,12071.172C-4685.944,12042.597 -4644.925,12045.942 -4631.482,12057.872C-4620.068,12048.549 -4595.319,12041.106 -4575.279,12064.884C-4561.378,12081.378 -4570.356,12110.283 -4538.011,12131.945C-4620.564,12150.682 -4623.432,12102.772 -4626.052,12099.311Z" style="fill:rgb(102,75,75);"/>
                <path d="M-4626.474,12114.816C-4630.003,12120.981 -4635.494,12128.162 -4644.293,12134.295C-4660.96,12145.91 -4690.019,12154.08 -4741.667,12142.452C-4744.219,12141.878 -4746.105,12139.716 -4746.328,12137.11C-4746.55,12134.503 -4745.059,12132.053 -4742.642,12131.053C-4730.078,12125.858 -4725.5,12115.609 -4722.431,12104.817C-4718.699,12091.693 -4716.894,12077.739 -4710.199,12067.816C-4697.331,12048.745 -4675.835,12042.29 -4657.406,12043.177C-4647.142,12043.67 -4637.882,12046.493 -4631.469,12050.461C-4617.194,12041.244 -4591.68,12036.112 -4570.691,12061.017C-4564.564,12068.286 -4562.24,12077.65 -4559.652,12087.909C-4556.429,12100.691 -4552.432,12115.066 -4534.672,12126.959C-4532.681,12128.293 -4531.674,12130.683 -4532.111,12133.04C-4532.549,12135.396 -4534.346,12137.266 -4536.683,12137.797C-4571.793,12145.765 -4593.33,12141.991 -4606.733,12134.844C-4617.237,12129.243 -4623.063,12121.494 -4626.474,12114.816ZM-4621.267,12095.689C-4620.746,12096.379 -4619.983,12098.038 -4619.221,12100.534C-4617.631,12105.747 -4614.199,12117.262 -4601.086,12124.254C-4590.957,12129.656 -4575.534,12132.31 -4551.828,12128.524C-4564.306,12116.418 -4568.203,12103.083 -4571.289,12090.844C-4573.398,12082.48 -4574.873,12074.677 -4579.868,12068.751C-4596.93,12048.506 -4617.968,12054.582 -4627.686,12062.519C-4629.967,12064.382 -4633.262,12064.314 -4635.465,12062.36C-4640.067,12058.276 -4648.528,12055.619 -4657.982,12055.164C-4672.689,12054.456 -4689.981,12059.309 -4700.251,12074.529C-4706.301,12083.495 -4707.515,12096.24 -4710.887,12108.1C-4713.594,12117.619 -4717.459,12126.61 -4724.696,12133.561C-4686.94,12139.823 -4664.566,12133.795 -4651.155,12124.449C-4636.708,12114.38 -4633.204,12100.725 -4631.558,12096.926C-4630.71,12094.968 -4628.886,12093.608 -4626.768,12093.353C-4624.649,12093.099 -4622.555,12093.988 -4621.267,12095.689Z" style="fill:rgb(55,49,78);"/>
            </g>
        </g>
    </g>
</svg>
